<svg width="384" height="134" viewBox="0 0 384 134" fill="none" xmlns="http://www.w3.org/2000/svg">
<g clip-path="url(#clip0)">
<path d="M126.758 117.219H126.822L131.435 101.829H133.117L137.766 117.219H137.83L142.574 101.829H143.957L138.521 118.661H136.97L132.326 103.398H132.258L127.582 118.661H125.983L120.611 101.829H121.962L126.758 117.219Z" fill="#636466"/>
<path d="M156.973 115.32H156.905C156.7 115.838 156.411 116.32 156.05 116.746C155.657 117.21 155.196 117.612 154.683 117.938C154.117 118.3 153.5 118.576 152.853 118.757C152.125 118.96 151.371 119.059 150.614 119.051C148.813 119.051 147.418 118.664 146.43 117.891C145.441 117.117 144.947 115.925 144.947 114.315C144.9 113.539 145.071 112.766 145.44 112.081C145.809 111.395 146.362 110.825 147.037 110.434C147.656 110.068 148.331 109.807 149.036 109.663C149.738 109.516 150.448 109.407 151.162 109.337L153.104 109.17C153.822 109.135 154.534 109.031 155.231 108.861C155.664 108.763 156.066 108.561 156.402 108.273C156.67 108.015 156.843 107.675 156.893 107.307C156.967 106.82 157.001 106.327 156.993 105.833C156.997 105.393 156.908 104.957 156.73 104.554C156.541 104.146 156.259 103.786 155.906 103.505C155.476 103.172 154.983 102.927 154.455 102.786C153.747 102.597 153.015 102.509 152.281 102.524C150.964 102.461 149.666 102.854 148.608 103.636C147.673 104.381 147.161 105.505 147.073 107.009H145.822C145.91 105.155 146.51 103.764 147.621 102.834C148.732 101.904 150.307 101.441 152.345 101.444C154.391 101.444 155.881 101.841 156.813 102.635C157.269 103.018 157.631 103.498 157.873 104.039C158.115 104.581 158.231 105.17 158.212 105.762V115.555C158.212 115.797 158.212 116.035 158.212 116.278C158.22 116.5 158.259 116.721 158.328 116.933C158.389 117.12 158.504 117.285 158.66 117.406C158.852 117.538 159.083 117.603 159.315 117.589C159.625 117.578 159.934 117.545 160.239 117.489V118.538C159.906 118.623 159.563 118.666 159.22 118.665C158.811 118.682 158.403 118.616 158.02 118.471C157.751 118.361 157.517 118.18 157.345 117.946C157.185 117.715 157.077 117.452 157.029 117.176C156.975 116.857 156.948 116.534 156.949 116.21L156.973 115.32ZM156.973 109.099C156.608 109.504 156.112 109.77 155.57 109.85C154.88 109.99 154.182 110.09 153.48 110.148L151.37 110.346C150.754 110.41 150.139 110.501 149.527 110.624C148.949 110.738 148.392 110.945 147.881 111.236C147.39 111.519 146.978 111.919 146.682 112.4C146.351 112.983 146.192 113.647 146.222 114.315C146.222 115.557 146.622 116.484 147.421 117.096C148.22 117.7 149.299 117.998 150.682 117.998C151.863 118.057 153.037 117.792 154.076 117.231C154.835 116.786 155.487 116.182 155.986 115.459C156.391 114.877 156.676 114.221 156.825 113.529C156.92 113.114 156.982 112.693 157.009 112.269L156.973 109.099Z" fill="#636466"/>
<path d="M162.27 95.2778H163.521V110.771L173.968 101.833H175.779L168.369 108.122L176.306 118.665H174.592L167.385 109.067L163.529 112.309V118.665H162.27V95.2778Z" fill="#636466"/>
<path d="M188.705 115.32H188.649C188.441 115.838 188.153 116.319 187.794 116.746C187.4 117.21 186.937 117.612 186.423 117.938C185.858 118.3 185.243 118.576 184.596 118.757C183.867 118.96 183.112 119.059 182.354 119.051C180.553 119.051 179.158 118.664 178.169 117.891C177.181 117.117 176.687 115.925 176.687 114.315C176.642 113.539 176.814 112.766 177.183 112.081C177.553 111.396 178.106 110.826 178.781 110.434C179.399 110.068 180.075 109.807 180.779 109.663C181.482 109.516 182.192 109.408 182.906 109.337L184.852 109.17C185.568 109.135 186.279 109.031 186.974 108.861C187.408 108.764 187.81 108.562 188.145 108.273C188.412 108.013 188.587 107.674 188.641 107.307C188.713 106.819 188.746 106.327 188.741 105.833C188.745 105.393 188.655 104.957 188.477 104.554C188.289 104.145 188.005 103.785 187.65 103.505C187.221 103.172 186.729 102.927 186.203 102.786C185.493 102.597 184.76 102.509 184.025 102.524C182.708 102.462 181.41 102.855 180.352 103.636C179.419 104.381 178.909 105.505 178.821 107.009H177.57C177.655 105.155 178.253 103.764 179.365 102.834C180.476 101.904 182.052 101.441 184.093 101.444C186.134 101.444 187.622 101.841 188.557 102.635C189.013 103.017 189.377 103.497 189.62 104.039C189.863 104.58 189.979 105.169 189.96 105.762V115.555C189.96 115.797 189.96 116.035 189.96 116.278C189.967 116.5 190.004 116.721 190.072 116.933C190.134 117.119 190.249 117.284 190.404 117.406C190.597 117.539 190.829 117.603 191.063 117.589C191.373 117.578 191.682 117.545 191.986 117.489V118.538C191.652 118.623 191.308 118.665 190.963 118.665C190.554 118.682 190.146 118.616 189.764 118.471C189.495 118.36 189.262 118.179 189.089 117.946C188.93 117.715 188.823 117.452 188.777 117.176C188.719 116.857 188.691 116.534 188.693 116.21L188.705 115.32ZM188.705 109.099C188.341 109.504 187.846 109.77 187.306 109.85C186.615 109.99 185.915 110.09 185.212 110.148L183.106 110.346C182.49 110.41 181.875 110.501 181.259 110.624C180.675 110.733 180.113 110.937 179.596 111.228C179.105 111.51 178.692 111.91 178.397 112.392C178.065 112.975 177.905 113.638 177.934 114.307C177.934 115.549 178.333 116.476 179.133 117.088C179.932 117.692 181.011 117.99 182.394 117.99C183.777 117.99 184.956 117.736 185.787 117.223C186.548 116.779 187.201 116.174 187.702 115.451C188.107 114.869 188.392 114.213 188.541 113.521C188.633 113.106 188.694 112.685 188.721 112.261L188.705 109.099Z" fill="#636466"/>
<path d="M207.323 117.219H207.391L212.003 101.829H213.686L218.33 117.219H218.394L223.142 101.829H224.525L219.089 118.661H217.539L212.894 103.398H212.826L208.15 118.661H206.551L201.18 101.829H202.531L207.323 117.219Z" fill="#636466"/>
<path d="M237.537 115.32H237.473C237.267 115.838 236.979 116.32 236.618 116.746C236.224 117.209 235.764 117.611 235.251 117.938C234.685 118.3 234.068 118.576 233.421 118.757C232.691 118.96 231.936 119.059 231.178 119.051C229.376 119.051 227.981 118.653 226.994 117.891C226.007 117.128 225.511 115.904 225.511 114.315C225.466 113.539 225.638 112.766 226.007 112.081C226.377 111.396 226.93 110.826 227.605 110.434C228.223 110.067 228.899 109.807 229.604 109.663C230.305 109.516 231.013 109.407 231.726 109.337L233.672 109.17C234.394 109.133 235.11 109.027 235.811 108.853C236.244 108.756 236.646 108.554 236.982 108.265C237.249 108.005 237.423 107.666 237.477 107.299C237.549 106.811 237.583 106.319 237.577 105.825C237.581 105.385 237.491 104.949 237.313 104.546C237.125 104.137 236.841 103.777 236.486 103.497C236.057 103.164 235.565 102.919 235.039 102.778C234.331 102.589 233.599 102.501 232.865 102.516C231.548 102.453 230.25 102.846 229.192 103.629C228.257 104.373 227.745 105.497 227.657 107.001H226.406C226.494 105.147 227.092 103.756 228.201 102.826C229.309 101.896 230.885 101.433 232.929 101.436C234.97 101.436 236.458 101.833 237.393 102.627C237.85 103.009 238.213 103.489 238.456 104.031C238.699 104.572 238.815 105.161 238.796 105.754V115.547C238.796 115.789 238.796 116.027 238.796 116.27C238.804 116.493 238.843 116.713 238.912 116.925C238.971 117.112 239.086 117.277 239.24 117.398C239.433 117.53 239.665 117.594 239.899 117.581C240.209 117.57 240.518 117.537 240.823 117.481V118.53C240.488 118.615 240.145 118.657 239.799 118.657C239.391 118.674 238.983 118.608 238.6 118.463C238.331 118.352 238.098 118.171 237.925 117.938C237.768 117.706 237.661 117.443 237.613 117.168C237.555 116.849 237.527 116.526 237.529 116.202L237.537 115.32ZM237.537 109.099C237.174 109.504 236.679 109.77 236.138 109.85C235.448 109.99 234.75 110.09 234.048 110.148L231.938 110.346C231.322 110.41 230.707 110.501 230.091 110.624C229.507 110.733 228.945 110.937 228.429 111.228C227.937 111.51 227.524 111.91 227.23 112.392C226.898 112.975 226.737 113.638 226.766 114.307C226.766 115.549 227.166 116.476 227.965 117.088C228.764 117.692 229.843 117.99 231.23 117.99C232.409 118.039 233.579 117.764 234.612 117.195C235.37 116.75 236.022 116.145 236.522 115.424C236.927 114.841 237.212 114.185 237.361 113.493C237.454 113.078 237.514 112.657 237.541 112.233L237.537 109.099Z" fill="#636466"/>
<path d="M242.846 95.2778H244.097V110.771L254.544 101.833H256.355L248.941 108.122L256.882 118.665H255.168L247.974 109.071L244.117 112.313V118.669H242.846V95.2778Z" fill="#636466"/>
<path d="M269.272 115.32H269.204C268.998 115.838 268.709 116.32 268.348 116.746C267.955 117.209 267.494 117.611 266.982 117.938C266.416 118.3 265.799 118.576 265.151 118.757C264.423 118.96 263.669 119.059 262.913 119.051C261.112 119.051 259.717 118.664 258.728 117.891C257.74 117.117 257.244 115.925 257.241 114.315C257.196 113.539 257.368 112.766 257.738 112.081C258.108 111.396 258.66 110.826 259.336 110.434C259.954 110.068 260.629 109.807 261.334 109.663C262.036 109.516 262.746 109.407 263.46 109.337L265.403 109.17C266.12 109.135 266.832 109.031 267.529 108.861C267.962 108.763 268.364 108.561 268.7 108.273C268.967 108.014 269.14 107.674 269.192 107.307C269.266 106.82 269.299 106.327 269.292 105.833C269.296 105.393 269.206 104.957 269.028 104.554C268.839 104.146 268.557 103.786 268.205 103.505C267.774 103.172 267.281 102.928 266.754 102.786C266.045 102.597 265.313 102.509 264.579 102.524C263.262 102.461 261.964 102.854 260.906 103.636C259.971 104.381 259.46 105.505 259.372 107.009H258.121C258.209 105.155 258.807 103.764 259.915 102.834C261.024 101.904 262.601 101.441 264.647 101.444C266.691 101.444 268.178 101.841 269.108 102.635C269.564 103.017 269.927 103.497 270.17 104.039C270.413 104.58 270.53 105.169 270.511 105.762V115.555C270.511 115.797 270.511 116.035 270.511 116.278C270.521 116.5 270.56 116.721 270.627 116.933C270.687 117.119 270.801 117.283 270.954 117.406C271.148 117.538 271.38 117.602 271.614 117.589C271.924 117.578 272.232 117.545 272.537 117.489V118.538C272.203 118.623 271.859 118.666 271.514 118.665C271.105 118.682 270.697 118.616 270.315 118.471C270.045 118.361 269.811 118.18 269.639 117.946C269.479 117.715 269.372 117.452 269.324 117.176C269.269 116.857 269.242 116.534 269.244 116.21L269.272 115.32ZM269.272 109.099C268.908 109.503 268.413 109.769 267.873 109.85C267.181 109.99 266.482 110.09 265.779 110.148L263.668 110.346C263.053 110.41 262.437 110.501 261.826 110.624C261.241 110.733 260.677 110.937 260.159 111.228C259.668 111.511 259.256 111.911 258.96 112.392C258.63 112.975 258.47 113.639 258.5 114.307C258.5 115.549 258.9 116.476 259.699 117.088C260.499 117.692 261.578 117.99 262.965 117.99C264.145 118.049 265.319 117.784 266.358 117.223C267.118 116.779 267.77 116.174 268.269 115.451C268.673 114.868 268.959 114.212 269.112 113.521C269.204 113.106 269.264 112.685 269.292 112.261L269.272 109.099Z" fill="#636466"/>
<path d="M4.7362 38.9327H5.1119C5.74159 36.7833 6.83244 34.795 8.30934 33.1047C9.90023 31.2392 11.791 29.6485 13.9048 28.3971C16.1957 27.0363 18.6728 26.0126 21.2589 25.3579C24.0063 24.6537 26.8403 24.3407 29.6762 24.4283V29.128C27.1822 28.797 24.3351 29.0446 21.135 29.8709C17.9349 30.6973 14.8867 32.5154 11.9904 35.3255C10.9081 36.4614 9.88874 37.655 8.93683 38.9009C8.04639 40.083 7.31294 41.3741 6.75458 42.7426C6.13673 44.2627 5.67606 45.8414 5.37968 47.4542C5.01527 49.5015 4.80685 51.5732 4.75619 53.6517V88.4766H0V24.7898H4.7362V38.9327Z" fill="#642D91"/>
<path d="M74.6953 75.8552H74.4435C73.6619 77.8151 72.5674 79.6368 71.2021 81.2502C69.7097 83.0093 67.9579 84.5336 66.0063 85.7711C63.8679 87.1402 61.5361 88.1846 59.0878 88.8699C56.3279 89.6378 53.4725 90.0137 50.6066 89.9862C43.7881 89.9862 38.5097 88.5189 34.7713 85.5844C31.033 82.6499 29.1678 78.1263 29.1758 72.0136C29.1758 68.3057 29.9232 65.2692 31.418 62.9041C32.8406 60.6301 34.7857 58.724 37.0935 57.3423C39.4419 55.9539 42.0093 54.9694 44.6874 54.4303C47.3518 53.8639 50.0458 53.4448 52.7569 53.1749L60.115 52.5552C63.5203 52.3062 66.2008 51.909 68.1565 51.3634C70.107 50.8271 71.5858 50.0842 72.581 49.1347C73.5959 48.1553 74.2539 46.868 74.4515 45.4758C74.7275 43.635 74.8531 41.775 74.8272 39.914C74.8426 38.2515 74.502 36.6047 73.828 35.0831C73.118 33.5334 72.0499 32.1722 70.7105 31.1104C69.0829 29.8466 67.217 28.9199 65.2229 28.3851C62.5373 27.6745 59.7638 27.3467 56.9855 27.4118C51.2488 27.4118 46.6152 28.8168 43.0847 31.6269C39.5542 34.4369 37.621 38.6851 37.2853 44.3714H32.5451C32.8782 37.3529 35.143 32.0864 39.3397 28.5719C43.5363 25.0573 49.5008 23.3014 57.2333 23.304C64.9604 23.304 70.5919 24.811 74.1278 27.825C77.6636 30.839 79.4302 34.7852 79.4275 39.6637V76.7213C79.4275 77.635 79.4275 78.5408 79.4915 79.4505C79.5209 80.2929 79.6676 81.1271 79.9271 81.9295C80.1528 82.6386 80.5871 83.264 81.1741 83.7252C81.9044 84.2254 82.7831 84.4662 83.6681 84.4085C84.8403 84.3743 86.0081 84.2508 87.1613 84.039V88.0118C85.9001 88.3425 84.6008 88.5081 83.2964 88.5044C81.3833 88.5044 79.8658 88.2568 78.7441 87.7615C77.7239 87.3458 76.8388 86.6585 76.1861 85.7751C75.5775 84.903 75.1682 83.9091 74.9871 82.8631C74.7713 81.6555 74.6669 80.4307 74.6753 79.2042L74.6953 75.8552ZM74.6953 52.3049C73.5282 53.7113 71.7617 54.6621 69.3955 55.1573C66.7813 55.6872 64.1373 56.06 61.4779 56.2737L53.4843 57.0166C51.1555 57.2629 48.828 57.6138 46.5019 58.0693C44.2893 58.4824 42.1609 59.257 40.203 60.3616C38.3458 61.4285 36.7853 62.9386 35.6626 64.7554C34.4982 66.6094 33.916 69.0261 33.916 72.0057C33.916 76.7147 35.4135 80.2054 38.4084 82.4778C41.4033 84.7502 45.52 85.889 50.7585 85.8943C56.1622 85.8943 60.4441 84.9236 63.6042 82.9823C66.7643 81.041 69.1717 78.8056 70.8264 76.2763C72.3619 74.0704 73.4481 71.5872 74.0238 68.9665C74.3752 67.3972 74.6051 65.8035 74.7113 64.1992L74.6953 52.3049Z" fill="#642D91"/>
<path d="M144.024 74.862H143.776C141.112 79.8941 137.781 83.6749 133.784 86.2042C129.787 88.7335 124.925 89.9941 119.196 89.9862C114.37 89.9862 110.214 89.0764 106.726 87.2569C103.325 85.5177 100.379 83.015 98.1208 79.9471C95.8117 76.7518 94.1203 73.1577 93.1328 69.3479C90.9275 60.8892 90.9702 52.0062 93.2567 43.5689C94.3027 39.7211 96.1098 36.1192 98.5724 32.9736C100.968 29.978 104.017 27.5627 107.489 25.9101C111.062 24.1754 115.26 23.308 120.083 23.308C122.651 23.3077 125.207 23.662 127.677 24.3607C130.123 25.0445 132.458 26.0719 134.612 27.4118C138.936 30.1188 142.177 34.2389 143.776 39.0638H144.024V0H148.764V88.4964H144.024V74.862ZM120.207 85.8943C124.278 85.8943 127.792 85.068 130.747 83.4153C133.659 81.7963 136.173 79.553 138.105 76.8484C140.107 74.0115 141.584 70.8418 142.465 67.4886C143.419 63.9922 143.902 60.3851 143.9 56.7623C143.907 53.1012 143.424 49.4555 142.465 45.9207C141.582 42.5593 140.127 39.3725 138.165 36.4974C136.254 33.7354 133.712 31.4631 130.747 29.8669C127.709 28.2302 124.155 27.4118 120.083 27.4118C115.841 27.4118 112.225 28.2063 109.236 29.7954C106.29 31.3665 103.75 33.5936 101.814 36.3028C99.8088 39.1459 98.3706 42.3447 97.5772 45.7261C96.6957 49.3364 96.2556 53.0392 96.2663 56.7543C96.2588 60.4168 96.7414 64.0639 97.7011 67.5999C98.581 70.9542 100.059 74.1243 102.066 76.9596C103.999 79.6694 106.538 81.8969 109.484 83.4669C112.479 85.0852 116.053 85.8943 120.207 85.8943Z" fill="#642D91"/>
<path d="M164.977 12.7683V0H169.713V12.7683H164.977ZM164.977 88.4964V24.7898H169.713V88.4964H164.977Z" fill="#642D91"/>
<path d="M181.11 56.6431C181.085 52.2929 181.74 47.9652 183.053 43.8152C184.26 39.9612 186.185 36.3671 188.728 33.2199C191.228 30.1557 194.38 27.6797 197.957 25.9697C201.615 24.1899 205.813 23.3013 210.55 23.304C215.288 23.3066 219.486 24.1952 223.144 25.9697C226.721 27.6807 229.872 30.1566 232.373 33.2199C234.916 36.3663 236.84 39.9607 238.044 43.8152C239.356 47.9652 240.009 52.2932 239.979 56.6431C240.001 61.0103 239.344 65.3547 238.032 69.5227C236.845 73.3842 234.92 76.9817 232.361 80.1179C229.846 83.1522 226.697 85.6059 223.132 87.3086C219.477 89.0831 215.279 89.9716 210.538 89.9743C205.798 89.9769 201.6 89.0884 197.945 87.3086C194.379 85.607 191.23 83.1531 188.716 80.1179C186.162 76.9802 184.239 73.383 183.053 69.5227C181.744 65.354 181.089 61.0099 181.11 56.6431Z" fill="#642D91"/>
<path fill-rule="evenodd" clip-rule="evenodd" d="M212.17 66.0585C216.067 65.3871 218.821 63.1981 220.2 59.5353C221.447 56.2339 221.111 53.1114 219.245 50.3781C219.137 50.2232 219.029 50.0722 218.917 49.9252C218.669 49.5899 218.402 49.2689 218.118 48.9638C215.815 46.5286 214.692 45.3884 214.692 37.3158V23.014H207.334V38.5076C207.429 39.7604 207.312 41.02 206.987 42.234C206.638 44.2555 205.692 46.1281 204.269 47.6131L204.197 47.7045C203.93 48.0275 203.63 48.3218 203.302 48.5825C200.54 51.3197 199.537 54.6885 200.504 58.4865C201.471 62.2844 203.981 64.7554 207.798 65.832" fill="white"/>
<path fill-rule="evenodd" clip-rule="evenodd" d="M211.947 68.752C211.947 69.1229 211.798 69.4785 211.534 69.7408C211.271 70.003 210.913 70.1504 210.54 70.1504C210.167 70.1504 209.809 70.003 209.545 69.7408C209.281 69.4785 209.133 69.1229 209.133 68.752V64.1595C209.133 63.7886 209.281 63.4329 209.545 63.1707C209.809 62.9084 210.167 62.7611 210.54 62.7611C210.913 62.7611 211.271 62.9084 211.534 63.1707C211.798 63.4329 211.947 63.7886 211.947 64.1595V68.752Z" fill="white"/>
<path d="M365.928 24.905L354.169 67.9733H353.921L343.03 24.905H325.944L315.3 68.0925H315.052L303.294 24.905H302.586H285.132H284.725L284.933 25.5566L271.639 68.3428H271.392L257.898 24.905H239.453L261.368 88.5203H280.924L293.366 51.9871L305.025 88.5203H323.222L334.117 45.8214H334.365L345.752 88.5203H363.825L384.001 24.905H365.928Z" fill="#E86E25"/>
<path d="M257.898 24.905H239.453L244.489 39.5286C249.19 35.8431 254.151 32.4974 259.333 29.5174L257.898 24.905Z" fill="#642D91"/>
<path d="M127.423 126.162L130.88 133.988H129.989L128.917 131.569H125.296L124.229 133.988H123.338L126.795 126.162H127.423ZM128.554 130.758L127.099 127.485L125.644 130.758H128.554ZM127.423 125.614H126.803L125.724 124.684H126.487L127.423 125.614Z" fill="#E86E25"/>
<path d="M147.814 131.064C147.569 131.985 146.992 132.785 146.194 133.313C145.395 133.841 144.43 134.06 143.48 133.928C142.531 133.797 141.662 133.325 141.039 132.601C140.415 131.877 140.08 130.951 140.096 129.998C140.113 129.045 140.479 128.131 141.127 127.428C141.775 126.726 142.659 126.283 143.613 126.184C144.566 126.085 145.523 126.336 146.303 126.891C147.083 127.445 147.632 128.264 147.846 129.193H146.999C146.786 128.477 146.323 127.861 145.692 127.456C145.062 127.051 144.307 126.883 143.563 126.984C142.819 127.084 142.136 127.446 141.638 128.004C141.139 128.562 140.858 129.279 140.845 130.025C140.833 130.771 141.089 131.497 141.568 132.071C142.047 132.646 142.717 133.03 143.457 133.156C144.197 133.282 144.958 133.14 145.602 132.756C146.246 132.372 146.73 131.772 146.967 131.064H147.814Z" fill="#E86E25"/>
<path d="M156.435 126.162H157.263V133.988H156.435V130.484H151.755V133.988H150.932V126.162H151.755V129.666H156.435V126.162Z" fill="#E86E25"/>
<path d="M164.432 126.162L167.89 133.988H166.998L165.927 131.569H162.306L161.239 133.988H160.344L163.805 126.162H164.432ZM165.564 130.758L164.121 127.485L162.67 130.758H165.564Z" fill="#E86E25"/>
<path d="M177.633 131.064C177.387 131.985 176.81 132.785 176.012 133.313C175.213 133.841 174.248 134.06 173.299 133.928C172.349 133.797 171.48 133.325 170.857 132.601C170.234 131.877 169.898 130.951 169.915 129.998C169.931 129.045 170.298 128.131 170.945 127.428C171.593 126.726 172.477 126.283 173.431 126.184C174.385 126.085 175.342 126.336 176.122 126.891C176.902 127.445 177.45 128.264 177.665 129.193H176.817C176.605 128.477 176.141 127.861 175.511 127.456C174.88 127.051 174.125 126.883 173.381 126.984C172.637 127.084 171.954 127.446 171.456 128.004C170.957 128.562 170.676 129.279 170.664 130.025C170.651 130.771 170.907 131.497 171.386 132.071C171.866 132.646 172.536 133.03 173.276 133.156C174.016 133.282 174.776 133.14 175.42 132.756C176.064 132.372 176.548 131.772 176.785 131.064H177.633Z" fill="#E86E25"/>
<path d="M186.134 126.162H186.933V130.929C186.931 131.719 186.625 132.478 186.076 133.05C185.528 133.622 184.779 133.962 183.986 134.002C183.192 134.041 182.413 133.776 181.81 133.261C181.208 132.746 180.827 132.021 180.746 131.235V126.162H181.569V130.929C181.594 131.514 181.845 132.066 182.27 132.471C182.695 132.876 183.261 133.103 183.85 133.103C184.438 133.103 185.004 132.876 185.429 132.471C185.854 132.066 186.105 131.514 186.13 130.929V126.162H186.134Z" fill="#E86E25"/>
<path d="M195.627 126.162H196.454V133.988H195.791L190.859 127.715V133.988H190.031V126.162H190.695L195.627 132.435V126.162Z" fill="#E86E25"/>
<path d="M211.306 131.831C211.306 133.023 210.163 133.988 208.764 133.988H208.093C206.694 133.988 205.547 133.027 205.547 131.831V131.787V131.481H206.406V131.831C206.406 132.566 207.166 133.166 208.093 133.166H208.764C209.688 133.166 210.447 132.566 210.447 131.831C210.447 131.096 209.688 130.484 208.764 130.484H208.457C207.98 130.491 207.508 130.399 207.07 130.214C206.198 129.709 205.779 129.098 205.779 128.319C205.779 127.127 206.926 126.162 208.325 126.162H208.52C209.875 126.162 210.999 127.06 211.066 128.208V128.538H210.231V128.244C210.175 127.528 209.432 126.984 208.544 126.984H208.349C207.421 126.984 206.674 127.584 206.674 128.319C206.674 129.054 207.377 129.642 208.273 129.666H208.672C208.865 129.661 209.057 129.672 209.248 129.698H209.28C209.821 129.748 210.324 129.993 210.697 130.385C211.07 130.778 211.286 131.291 211.306 131.831Z" fill="#E86E25"/>
<path d="M217.938 126.162L221.395 133.988H220.504L219.425 131.569H215.828L214.76 133.988H213.869L217.326 126.162H217.938ZM219.069 130.758L217.626 127.485L216.175 130.758H219.069Z" fill="#E86E25"/>
<path d="M232.307 130.484L236.284 133.988H235.061L231.316 130.671V133.988H230.492V126.162H233.606C234.182 126.162 234.735 126.39 235.143 126.795C235.551 127.2 235.78 127.75 235.78 128.323C235.78 128.896 235.551 129.446 235.143 129.851C234.735 130.256 234.182 130.484 233.606 130.484H232.307ZM231.316 129.666H233.606C233.951 129.647 234.275 129.498 234.513 129.248C234.751 128.999 234.883 128.668 234.883 128.325C234.883 127.981 234.751 127.651 234.513 127.402C234.275 127.152 233.951 127.003 233.606 126.984H231.316V129.666Z" fill="#E86E25"/>
<path d="M243.448 126.162L246.905 133.988H246.014L244.947 131.569H241.326L240.255 133.988H239.363L242.821 126.162H243.448ZM244.603 130.758L243.16 127.485L241.709 130.758H244.603Z" fill="#E86E25"/>
<path d="M256.435 130.071C256.435 130.585 256.334 131.094 256.137 131.569C255.939 132.044 255.65 132.475 255.285 132.839C254.92 133.203 254.486 133.492 254.008 133.689C253.531 133.886 253.019 133.988 252.502 133.988H249.992V126.162H252.502C253.545 126.163 254.545 126.575 255.282 127.308C256.019 128.041 256.434 129.035 256.435 130.071ZM255.636 130.071C255.635 129.249 255.306 128.462 254.721 127.881C254.137 127.3 253.345 126.973 252.518 126.972H250.832V133.178H252.518C253.343 133.172 254.133 132.843 254.714 132.26C255.295 131.678 255.621 130.891 255.62 130.071H255.636Z" fill="#E86E25"/>
<path d="M260.815 126.984V133.178H262.158V133.972H258.645V133.178H259.991V126.984H258.645V126.162H262.158V126.984H260.815Z" fill="#E86E25"/>
<path d="M272.181 130.059C272.18 130.827 271.95 131.577 271.521 132.215C271.091 132.853 270.48 133.349 269.767 133.643C269.053 133.936 268.268 134.012 267.51 133.861C266.753 133.711 266.058 133.34 265.512 132.797C264.966 132.253 264.595 131.561 264.445 130.808C264.295 130.055 264.374 129.275 264.67 128.566C264.966 127.857 265.467 127.252 266.11 126.826C266.752 126.4 267.508 126.173 268.28 126.174C269.315 126.176 270.307 126.586 271.039 127.315C271.77 128.043 272.181 129.03 272.181 130.059ZM271.381 130.059C271.38 129.45 271.197 128.856 270.856 128.351C270.514 127.845 270.03 127.452 269.464 127.22C268.898 126.988 268.275 126.929 267.675 127.048C267.074 127.168 266.523 127.462 266.091 127.893C265.658 128.324 265.364 128.872 265.245 129.469C265.126 130.066 265.188 130.685 265.423 131.247C265.658 131.809 266.055 132.29 266.564 132.628C267.073 132.966 267.672 133.146 268.284 133.146C268.691 133.146 269.095 133.066 269.471 132.911C269.847 132.756 270.189 132.528 270.477 132.241C270.765 131.955 270.993 131.614 271.148 131.24C271.303 130.865 271.383 130.464 271.381 130.059Z" fill="#E86E25"/>
</g>
<defs>
<clipPath id="clip0">
<rect width="384" height="134" fill="white"/>
</clipPath>
</defs>
</svg>
